<svg class="main-svg" xmlns="http://www.w3.org/2000/svg" xmlns:xlink="http://www.w3.org/1999/xlink" width="500" height="375" style="" viewBox="0 0 500 375"><rect x="0" y="0" width="500" height="375" style="fill: rgb(255, 255, 255); fill-opacity: 1;"/><defs id="defs-82faa3"><g class="clips"><clipPath id="clip82faa3xyplot" class="plotclip"><rect width="360" height="235"/></clipPath><clipPath class="axesclip" id="clip82faa3x"><rect x="100" y="0" width="360" height="375"/></clipPath><clipPath class="axesclip" id="clip82faa3y"><rect x="0" y="40" width="500" height="235"/></clipPath><clipPath class="axesclip" id="clip82faa3xy"><rect x="100" y="40" width="360" height="235"/></clipPath></g><g class="gradients"/><g class="patterns"/></defs><g class="bglayer"/><g class="layer-below"><g class="imagelayer"/><g class="shapelayer"/></g><g class="cartesianlayer"><g class="subplot xy"><g class="layer-subplot"><g class="shapelayer"/><g class="imagelayer"/></g><g class="gridlayer"><g class="x"/><g class="y"><path class="ygrid crisp" transform="translate(0,251.5)" d="M100,0h360" style="stroke: rgb(255, 255, 255); stroke-opacity: 1; stroke-width: 1px;"/><path class="ygrid crisp" transform="translate(0,204.5)" d="M100,0h360" style="stroke: rgb(255, 255, 255); stroke-opacity: 1; stroke-width: 1px;"/><path class="ygrid crisp" transform="translate(0,110.5)" d="M100,0h360" style="stroke: rgb(255, 255, 255); stroke-opacity: 1; stroke-width: 1px;"/><path class="ygrid crisp" transform="translate(0,63.5)" d="M100,0h360" style="stroke: rgb(255, 255, 255); stroke-opacity: 1; stroke-width: 1px;"/></g></g><g class="zerolinelayer"><path class="yzl zl crisp" transform="translate(0,157.5)" d="M100,0h360" style="stroke: rgb(0, 0, 0); stroke-opacity: 1; stroke-width: 1.5px;"/></g><path class="xlines-below"/><path class="ylines-below"/><g class="overlines-below"/><g class="xaxislayer-below"/><g class="yaxislayer-below"/><g class="overaxes-below"/><g class="plot" transform="translate(100,40)" clip-path="url(#clip82faa3xyplot)"><g class="scatterlayer mlayer"><g class="trace scatter trace4f7e08" style="stroke-miterlimit: 2; opacity: 1;"><g class="fills"/><g class="errorbars"/><g class="lines"/><g class="points"><path class="point" transform="translate(318.4,148.81)" d="M3,0A3,3 0 1,1 0,-3A3,3 0 0,1 3,0Z" style="opacity: 1; stroke-width: 0px; fill: rgb(0, 0, 0); fill-opacity: 1;"/><path class="point" transform="translate(318.4,111.21)" d="M3,0A3,3 0 1,1 0,-3A3,3 0 0,1 3,0Z" style="opacity: 1; stroke-width: 0px; fill: rgb(0, 0, 0); fill-opacity: 1;"/><path class="point" transform="translate(318.4,108.86)" d="M3,0A3,3 0 1,1 0,-3A3,3 0 0,1 3,0Z" style="opacity: 1; stroke-width: 0px; fill: rgb(0, 0, 0); fill-opacity: 1;"/><path class="point" transform="translate(238.4,143.17)" d="M3,0A3,3 0 1,1 0,-3A3,3 0 0,1 3,0Z" style="opacity: 1; stroke-width: 0px; fill: rgb(0, 0, 0); fill-opacity: 1;"/><path class="point" transform="translate(238.4,103.22)" d="M3,0A3,3 0 1,1 0,-3A3,3 0 0,1 3,0Z" style="opacity: 1; stroke-width: 0px; fill: rgb(0, 0, 0); fill-opacity: 1;"/><path class="point" transform="translate(238.4,114.97)" d="M3,0A3,3 0 1,1 0,-3A3,3 0 0,1 3,0Z" style="opacity: 1; stroke-width: 0px; fill: rgb(0, 0, 0); fill-opacity: 1;"/><path class="point" transform="translate(159.83,102.41)" d="M3,0A3,3 0 1,1 0,-3A3,3 0 0,1 3,0Z" style="opacity: 1; stroke-width: 0px; fill: rgb(0, 0, 0); fill-opacity: 1;"/><path class="point" transform="translate(159.83,109.46)" d="M3,0A3,3 0 1,1 0,-3A3,3 0 0,1 3,0Z" style="opacity: 1; stroke-width: 0px; fill: rgb(0, 0, 0); fill-opacity: 1;"/><path class="point" transform="translate(159.83,74.21)" d="M3,0A3,3 0 1,1 0,-3A3,3 0 0,1 3,0Z" style="opacity: 1; stroke-width: 0px; fill: rgb(0, 0, 0); fill-opacity: 1;"/><path class="point" transform="translate(79.83,96.76)" d="M3,0A3,3 0 1,1 0,-3A3,3 0 0,1 3,0Z" style="opacity: 1; stroke-width: 0px; fill: rgb(0, 0, 0); fill-opacity: 1;"/><path class="point" transform="translate(79.83,150.81)" d="M3,0A3,3 0 1,1 0,-3A3,3 0 0,1 3,0Z" style="opacity: 1; stroke-width: 0px; fill: rgb(0, 0, 0); fill-opacity: 1;"/><path class="point" transform="translate(79.83,146.11)" d="M3,0A3,3 0 1,1 0,-3A3,3 0 0,1 3,0Z" style="opacity: 1; stroke-width: 0px; fill: rgb(0, 0, 0); fill-opacity: 1;"/></g><g class="text"/></g></g></g><g class="overplot"/><path class="xlines-above crisp" d="" style="fill: none; stroke-width: 1px; stroke: rgb(0, 0, 0); stroke-opacity: 0;"/><path class="ylines-above crisp" d="" style="fill: none; stroke-width: 1px; stroke: rgb(0, 0, 0); stroke-opacity: 0;"/><g class="overlines-above"/><g class="xaxislayer-above"><path class="xtick ticks crisp" d="M0,276v5" transform="translate(100,0)" style="stroke: rgb(0, 0, 0); stroke-opacity: 1; stroke-width: 1.5px;"/><path class="xtick ticks crisp" d="M0,276v5" transform="translate(180,0)" style="stroke: rgb(0, 0, 0); stroke-opacity: 1; stroke-width: 1.5px;"/><path class="xtick ticks crisp" d="M0,276v5" transform="translate(260,0)" style="stroke: rgb(0, 0, 0); stroke-opacity: 1; stroke-width: 1.5px;"/><path class="xtick ticks crisp" d="M0,276v5" transform="translate(340,0)" style="stroke: rgb(0, 0, 0); stroke-opacity: 1; stroke-width: 1.5px;"/><path class="xtick ticks crisp" d="M0,276v5" transform="translate(420,0)" style="stroke: rgb(0, 0, 0); stroke-opacity: 1; stroke-width: 1.5px;"/><g class="xtick"><text text-anchor="middle" x="0" y="300.2" transform="translate(100,0)" style="font-family: Roboto; font-size: 16px; fill: rgb(0, 0, 0); fill-opacity: 1; white-space: pre; opacity: 1;">10</text></g><g class="xtick"><text text-anchor="middle" x="0" y="300.2" style="font-family: Roboto; font-size: 16px; fill: rgb(0, 0, 0); fill-opacity: 1; white-space: pre; opacity: 1;" transform="translate(180,0)">100</text></g><g class="xtick"><text text-anchor="middle" x="0" y="300.2" style="font-family: Roboto; font-size: 16px; fill: rgb(0, 0, 0); fill-opacity: 1; white-space: pre; opacity: 1;" transform="translate(260,0)">1000</text></g><g class="xtick"><text text-anchor="middle" x="0" y="300.2" style="font-family: Roboto; font-size: 16px; fill: rgb(0, 0, 0); fill-opacity: 1; white-space: pre; opacity: 1;" transform="translate(340,0)">1×10​<tspan style="font-size:70%" dy="-0.6em">4</tspan><tspan dy="0.42em">​</tspan></text></g><g class="xtick"><text text-anchor="middle" x="0" y="300.2" style="font-family: Roboto; font-size: 16px; fill: rgb(0, 0, 0); fill-opacity: 1; white-space: pre; opacity: 1;" transform="translate(420,0)">1×10​<tspan style="font-size:70%" dy="-0.6em">5</tspan><tspan dy="0.42em">​</tspan></text></g></g><g class="yaxislayer-above"><path class="ytick ticks crisp" d="M99,0h-5" transform="translate(0,251.5)" style="stroke: rgb(0, 0, 0); stroke-opacity: 1; stroke-width: 1.5px;"/><path class="ytick ticks crisp" d="M99,0h-5" transform="translate(0,204.5)" style="stroke: rgb(0, 0, 0); stroke-opacity: 1; stroke-width: 1.5px;"/><path class="ytick ticks crisp" d="M99,0h-5" transform="translate(0,157.5)" style="stroke: rgb(0, 0, 0); stroke-opacity: 1; stroke-width: 1.5px;"/><path class="ytick ticks crisp" d="M99,0h-5" transform="translate(0,110.5)" style="stroke: rgb(0, 0, 0); stroke-opacity: 1; stroke-width: 1.5px;"/><path class="ytick ticks crisp" d="M99,0h-5" transform="translate(0,63.5)" style="stroke: rgb(0, 0, 0); stroke-opacity: 1; stroke-width: 1.5px;"/><g class="ytick"><text text-anchor="end" x="90.8" y="5.6" transform="translate(0,251.5)" style="font-family: Roboto; font-size: 16px; fill: rgb(0, 0, 0); fill-opacity: 1; white-space: pre; opacity: 1;">−0.4</text></g><g class="ytick"><text text-anchor="end" x="90.8" y="5.6" style="font-family: Roboto; font-size: 16px; fill: rgb(0, 0, 0); fill-opacity: 1; white-space: pre; opacity: 1;" transform="translate(0,204.5)">−0.2</text></g><g class="ytick"><text text-anchor="end" x="90.8" y="5.6" style="font-family: Roboto; font-size: 16px; fill: rgb(0, 0, 0); fill-opacity: 1; white-space: pre; opacity: 1;" transform="translate(0,157.5)">0</text></g><g class="ytick"><text text-anchor="end" x="90.8" y="5.6" style="font-family: Roboto; font-size: 16px; fill: rgb(0, 0, 0); fill-opacity: 1; white-space: pre; opacity: 1;" transform="translate(0,110.5)">0.2</text></g><g class="ytick"><text text-anchor="end" x="90.8" y="5.6" style="font-family: Roboto; font-size: 16px; fill: rgb(0, 0, 0); fill-opacity: 1; white-space: pre; opacity: 1;" transform="translate(0,63.5)">0.4</text></g></g><g class="overaxes-above"/></g></g><g class="polarlayer"/><g class="ternarylayer"/><g class="geolayer"/><g class="funnelarealayer"/><g class="pielayer"/><g class="iciclelayer"/><g class="treemaplayer"/><g class="sunburstlayer"/><g class="glimages"/><defs id="topdefs-82faa3"><g class="clips"/></defs><g class="layer-above"><g class="imagelayer"/><g class="shapelayer"/></g><g class="infolayer"><g class="g-gtitle"/><g class="g-xtitle"><text class="xtitle" x="280" y="331.803125" text-anchor="middle" style="font-family: Roboto; font-size: 18px; fill: rgb(0, 0, 0); opacity: 1; font-weight: normal; white-space: pre;">copies/mL</text></g><g class="g-ytitle"><text class="ytitle" transform="rotate(-90,31.868750000000006,157.5)" x="31.868750000000006" y="157.5" text-anchor="middle" style="font-family: Roboto; font-size: 18px; fill: rgb(0, 0, 0); opacity: 1; font-weight: normal; white-space: pre;">Ct</text></g></g></svg>