<svg class="main-svg" xmlns="http://www.w3.org/2000/svg" xmlns:xlink="http://www.w3.org/1999/xlink" width="2000" height="1500" style="" viewBox="0 0 500 375"><rect x="0" y="0" width="500" height="375" style="fill: rgb(255, 255, 255); fill-opacity: 1;"/><defs id="defs-09c8e6"><g class="clips"><clipPath id="clip09c8e6xyplot" class="plotclip"><rect width="340" height="195"/></clipPath><clipPath class="axesclip" id="clip09c8e6x"><rect x="80" y="0" width="340" height="375"/></clipPath><clipPath class="axesclip" id="clip09c8e6y"><rect x="0" y="100" width="500" height="195"/></clipPath><clipPath class="axesclip" id="clip09c8e6xy"><rect x="80" y="100" width="340" height="195"/></clipPath></g><g class="gradients"/><g class="patterns"/></defs><g class="bglayer"/><g class="layer-below"><g class="imagelayer"/><g class="shapelayer"/></g><g class="cartesianlayer"><g class="subplot xy"><g class="layer-subplot"><g class="shapelayer"/><g class="imagelayer"/></g><g class="gridlayer"><g class="x"/><g class="y"><path class="ygrid crisp" transform="translate(0,275.5)" d="M80,0h340" style="stroke: rgb(255, 255, 255); stroke-opacity: 1; stroke-width: 1px;"/><path class="ygrid crisp" transform="translate(0,236.5)" d="M80,0h340" style="stroke: rgb(255, 255, 255); stroke-opacity: 1; stroke-width: 1px;"/><path class="ygrid crisp" transform="translate(0,158.5)" d="M80,0h340" style="stroke: rgb(255, 255, 255); stroke-opacity: 1; stroke-width: 1px;"/><path class="ygrid crisp" transform="translate(0,119.5)" d="M80,0h340" style="stroke: rgb(255, 255, 255); stroke-opacity: 1; stroke-width: 1px;"/></g></g><g class="zerolinelayer"><path class="yzl zl crisp" transform="translate(0,197.5)" d="M80,0h340" style="stroke: rgb(0, 0, 0); stroke-opacity: 1; stroke-width: 1.5px;"/></g><path class="xlines-below"/><path class="ylines-below"/><g class="overlines-below"/><g class="xaxislayer-below"/><g class="yaxislayer-below"/><g class="overaxes-below"/><g class="plot" transform="translate(80,100)" clip-path="url(#clip09c8e6xyplot)"><g class="scatterlayer mlayer"><g class="trace scatter trace723049" style="stroke-miterlimit: 2; opacity: 1;"><g class="fills"/><g class="errorbars"/><g class="lines"/><g class="points"><path class="point" transform="translate(300.71,123.48)" d="M3,0A3,3 0 1,1 0,-3A3,3 0 0,1 3,0Z" style="opacity: 1; stroke-width: 0px; fill: rgb(0, 0, 0); fill-opacity: 1;"/><path class="point" transform="translate(300.71,92.28)" d="M3,0A3,3 0 1,1 0,-3A3,3 0 0,1 3,0Z" style="opacity: 1; stroke-width: 0px; fill: rgb(0, 0, 0); fill-opacity: 1;"/><path class="point" transform="translate(300.71,90.33)" d="M3,0A3,3 0 1,1 0,-3A3,3 0 0,1 3,0Z" style="opacity: 1; stroke-width: 0px; fill: rgb(0, 0, 0); fill-opacity: 1;"/><path class="point" transform="translate(225.16,118.8)" d="M3,0A3,3 0 1,1 0,-3A3,3 0 0,1 3,0Z" style="opacity: 1; stroke-width: 0px; fill: rgb(0, 0, 0); fill-opacity: 1;"/><path class="point" transform="translate(225.16,85.65)" d="M3,0A3,3 0 1,1 0,-3A3,3 0 0,1 3,0Z" style="opacity: 1; stroke-width: 0px; fill: rgb(0, 0, 0); fill-opacity: 1;"/><path class="point" transform="translate(225.16,95.4)" d="M3,0A3,3 0 1,1 0,-3A3,3 0 0,1 3,0Z" style="opacity: 1; stroke-width: 0px; fill: rgb(0, 0, 0); fill-opacity: 1;"/><path class="point" transform="translate(150.95,84.97)" d="M3,0A3,3 0 1,1 0,-3A3,3 0 0,1 3,0Z" style="opacity: 1; stroke-width: 0px; fill: rgb(0, 0, 0); fill-opacity: 1;"/><path class="point" transform="translate(150.95,90.82)" d="M3,0A3,3 0 1,1 0,-3A3,3 0 0,1 3,0Z" style="opacity: 1; stroke-width: 0px; fill: rgb(0, 0, 0); fill-opacity: 1;"/><path class="point" transform="translate(150.95,61.57)" d="M3,0A3,3 0 1,1 0,-3A3,3 0 0,1 3,0Z" style="opacity: 1; stroke-width: 0px; fill: rgb(0, 0, 0); fill-opacity: 1;"/><path class="point" transform="translate(75.39,80.29)" d="M3,0A3,3 0 1,1 0,-3A3,3 0 0,1 3,0Z" style="opacity: 1; stroke-width: 0px; fill: rgb(0, 0, 0); fill-opacity: 1;"/><path class="point" transform="translate(75.39,125.14)" d="M3,0A3,3 0 1,1 0,-3A3,3 0 0,1 3,0Z" style="opacity: 1; stroke-width: 0px; fill: rgb(0, 0, 0); fill-opacity: 1;"/><path class="point" transform="translate(75.39,121.24)" d="M3,0A3,3 0 1,1 0,-3A3,3 0 0,1 3,0Z" style="opacity: 1; stroke-width: 0px; fill: rgb(0, 0, 0); fill-opacity: 1;"/></g><g class="text"/></g></g></g><g class="overplot"/><path class="xlines-above crisp" d="" style="fill: none; stroke-width: 1px; stroke: rgb(0, 0, 0); stroke-opacity: 0;"/><path class="ylines-above crisp" d="" style="fill: none; stroke-width: 1px; stroke: rgb(0, 0, 0); stroke-opacity: 0;"/><g class="overlines-above"/><g class="xaxislayer-above"><path class="xtick ticks crisp" d="M0,296v5" transform="translate(80,0)" style="stroke: rgb(0, 0, 0); stroke-opacity: 1; stroke-width: 1.5px;"/><path class="xtick ticks crisp" d="M0,296v5" transform="translate(155.56,0)" style="stroke: rgb(0, 0, 0); stroke-opacity: 1; stroke-width: 1.5px;"/><path class="xtick ticks crisp" d="M0,296v5" transform="translate(231.11,0)" style="stroke: rgb(0, 0, 0); stroke-opacity: 1; stroke-width: 1.5px;"/><path class="xtick ticks crisp" d="M0,296v5" transform="translate(306.66999999999996,0)" style="stroke: rgb(0, 0, 0); stroke-opacity: 1; stroke-width: 1.5px;"/><path class="xtick ticks crisp" d="M0,296v5" transform="translate(382.22,0)" style="stroke: rgb(0, 0, 0); stroke-opacity: 1; stroke-width: 1.5px;"/><g class="xtick"><text text-anchor="middle" x="0" y="320.2" transform="translate(80,0)" style="font-family: Roboto; font-size: 16px; fill: rgb(0, 0, 0); fill-opacity: 1; white-space: pre; opacity: 1;">10</text></g><g class="xtick"><text text-anchor="middle" x="0" y="320.2" style="font-family: Roboto; font-size: 16px; fill: rgb(0, 0, 0); fill-opacity: 1; white-space: pre; opacity: 1;" transform="translate(155.56,0)">100</text></g><g class="xtick"><text text-anchor="middle" x="0" y="320.2" style="font-family: Roboto; font-size: 16px; fill: rgb(0, 0, 0); fill-opacity: 1; white-space: pre; opacity: 1;" transform="translate(231.11,0)">1000</text></g><g class="xtick"><text text-anchor="middle" x="0" y="320.2" style="font-family: Roboto; font-size: 16px; fill: rgb(0, 0, 0); fill-opacity: 1; white-space: pre; opacity: 1;" transform="translate(306.66999999999996,0)">1×10​<tspan style="font-size:70%" dy="-0.6em">4</tspan><tspan dy="0.42em">​</tspan></text></g><g class="xtick"><text text-anchor="middle" x="0" y="320.2" style="font-family: Roboto; font-size: 16px; fill: rgb(0, 0, 0); fill-opacity: 1; white-space: pre; opacity: 1;" transform="translate(382.22,0)">1×10​<tspan style="font-size:70%" dy="-0.6em">5</tspan><tspan dy="0.42em">​</tspan></text></g></g><g class="yaxislayer-above"><path class="ytick ticks crisp" d="M79,0h-5" transform="translate(0,275.5)" style="stroke: rgb(0, 0, 0); stroke-opacity: 1; stroke-width: 1.5px;"/><path class="ytick ticks crisp" d="M79,0h-5" transform="translate(0,236.5)" style="stroke: rgb(0, 0, 0); stroke-opacity: 1; stroke-width: 1.5px;"/><path class="ytick ticks crisp" d="M79,0h-5" transform="translate(0,197.5)" style="stroke: rgb(0, 0, 0); stroke-opacity: 1; stroke-width: 1.5px;"/><path class="ytick ticks crisp" d="M79,0h-5" transform="translate(0,158.5)" style="stroke: rgb(0, 0, 0); stroke-opacity: 1; stroke-width: 1.5px;"/><path class="ytick ticks crisp" d="M79,0h-5" transform="translate(0,119.5)" style="stroke: rgb(0, 0, 0); stroke-opacity: 1; stroke-width: 1.5px;"/><g class="ytick"><text text-anchor="end" x="70.8" y="5.6" transform="translate(0,275.5)" style="font-family: Roboto; font-size: 16px; fill: rgb(0, 0, 0); fill-opacity: 1; white-space: pre; opacity: 1;">−0.4</text></g><g class="ytick"><text text-anchor="end" x="70.8" y="5.6" style="font-family: Roboto; font-size: 16px; fill: rgb(0, 0, 0); fill-opacity: 1; white-space: pre; opacity: 1;" transform="translate(0,236.5)">−0.2</text></g><g class="ytick"><text text-anchor="end" x="70.8" y="5.6" style="font-family: Roboto; font-size: 16px; fill: rgb(0, 0, 0); fill-opacity: 1; white-space: pre; opacity: 1;" transform="translate(0,197.5)">0</text></g><g class="ytick"><text text-anchor="end" x="70.8" y="5.6" style="font-family: Roboto; font-size: 16px; fill: rgb(0, 0, 0); fill-opacity: 1; white-space: pre; opacity: 1;" transform="translate(0,158.5)">0.2</text></g><g class="ytick"><text text-anchor="end" x="70.8" y="5.6" style="font-family: Roboto; font-size: 16px; fill: rgb(0, 0, 0); fill-opacity: 1; white-space: pre; opacity: 1;" transform="translate(0,119.5)">0.4</text></g></g><g class="overaxes-above"/></g></g><g class="polarlayer"/><g class="ternarylayer"/><g class="geolayer"/><g class="funnelarealayer"/><g class="pielayer"/><g class="iciclelayer"/><g class="treemaplayer"/><g class="sunburstlayer"/><g class="glimages"/><defs id="topdefs-09c8e6"><g class="clips"/></defs><g class="layer-above"><g class="imagelayer"/><g class="shapelayer"/></g><g class="infolayer"><g class="g-gtitle"/><g class="g-xtitle"><text class="xtitle" x="250" y="351.803125" text-anchor="middle" style="font-family: Roboto; font-size: 18px; fill: rgb(0, 0, 0); opacity: 1; font-weight: normal; white-space: pre;">copies/mL</text></g><g class="g-ytitle" transform="translate(4.630859375,0)"><text class="ytitle" transform="rotate(-90,11.868750000000006,197.5)" x="11.868750000000006" y="197.5" text-anchor="middle" style="font-family: Roboto; font-size: 18px; fill: rgb(0, 0, 0); opacity: 1; font-weight: normal; white-space: pre;">Ct</text></g></g></svg>