<svg class="main-svg" xmlns="http://www.w3.org/2000/svg" xmlns:xlink="http://www.w3.org/1999/xlink" width="1600" height="1400" style="" viewBox="0 0 400 350"><rect x="0" y="0" width="400" height="350" style="fill: rgb(255, 255, 255); fill-opacity: 1;"/><defs id="defs-09d01c"><g class="clips"><clipPath id="clip09d01cxyplot" class="plotclip"><rect width="240" height="170"/></clipPath><clipPath class="axesclip" id="clip09d01cx"><rect x="80" y="0" width="240" height="350"/></clipPath><clipPath class="axesclip" id="clip09d01cy"><rect x="0" y="100" width="400" height="170"/></clipPath><clipPath class="axesclip" id="clip09d01cxy"><rect x="80" y="100" width="240" height="170"/></clipPath></g><g class="gradients"/><g class="patterns"/></defs><g class="bglayer"/><g class="layer-below"><g class="imagelayer"/><g class="shapelayer"/></g><g class="cartesianlayer"><g class="subplot xy"><g class="layer-subplot"><g class="shapelayer"/><g class="imagelayer"/></g><g class="gridlayer"><g class="x"/><g class="y"><path class="ygrid crisp" transform="translate(0,185)" d="M80,0h240" style="stroke: rgb(255, 255, 255); stroke-opacity: 1; stroke-width: 1px;"/></g></g><g class="zerolinelayer"/><path class="xlines-below"/><path class="ylines-below"/><g class="overlines-below"/><g class="xaxislayer-below"/><g class="yaxislayer-below"/><g class="overaxes-below"/><g class="plot" transform="translate(80,100)" clip-path="url(#clip09d01cxyplot)"><g class="scatterlayer mlayer"><g class="trace scatter trace2d828b" style="stroke-miterlimit: 2; opacity: 1;"><g class="fills"/><g class="errorbars"/><g class="lines"/><g class="points"><path class="point" transform="translate(2092.8,686.8)" d="M3,0A3,3 0 1,1 0,-3A3,3 0 0,1 3,0Z" style="opacity: 1; stroke-width: 0px; fill: rgb(0, 0, 0); fill-opacity: 1;"/><path class="point" transform="translate(2092.8,673.2)" d="M3,0A3,3 0 1,1 0,-3A3,3 0 0,1 3,0Z" style="opacity: 1; stroke-width: 0px; fill: rgb(0, 0, 0); fill-opacity: 1;"/><path class="point" transform="translate(2092.8,672.35)" d="M3,0A3,3 0 1,1 0,-3A3,3 0 0,1 3,0Z" style="opacity: 1; stroke-width: 0px; fill: rgb(0, 0, 0); fill-opacity: 1;"/><path class="point" transform="translate(1132.8,401.2)" d="M3,0A3,3 0 1,1 0,-3A3,3 0 0,1 3,0Z" style="opacity: 1; stroke-width: 0px; fill: rgb(0, 0, 0); fill-opacity: 1;"/><path class="point" transform="translate(1132.8,386.75)" d="M3,0A3,3 0 1,1 0,-3A3,3 0 0,1 3,0Z" style="opacity: 1; stroke-width: 0px; fill: rgb(0, 0, 0); fill-opacity: 1;"/><path class="point" transform="translate(1132.8,391)" d="M3,0A3,3 0 1,1 0,-3A3,3 0 0,1 3,0Z" style="opacity: 1; stroke-width: 0px; fill: rgb(0, 0, 0); fill-opacity: 1;"/><path class="point" transform="translate(189.91,107.95)" d="M3,0A3,3 0 1,1 0,-3A3,3 0 0,1 3,0Z" style="opacity: 1; stroke-width: 0px; fill: rgb(0, 0, 0); fill-opacity: 1;"/><path class="point" transform="translate(189.91,110.5)" d="M3,0A3,3 0 1,1 0,-3A3,3 0 0,1 3,0Z" style="opacity: 1; stroke-width: 0px; fill: rgb(0, 0, 0); fill-opacity: 1;"/><path class="point" transform="translate(189.91,97.75)" d="M3,0A3,3 0 1,1 0,-3A3,3 0 0,1 3,0Z" style="opacity: 1; stroke-width: 0px; fill: rgb(0, 0, 0); fill-opacity: 1;"/><path class="point" transform="translate(-770.09,-177.65)" d="M3,0A3,3 0 1,1 0,-3A3,3 0 0,1 3,0Z" style="opacity: 1; stroke-width: 0px; fill: rgb(0, 0, 0); fill-opacity: 1;"/><path class="point" transform="translate(-770.09,-158.1)" d="M3,0A3,3 0 1,1 0,-3A3,3 0 0,1 3,0Z" style="opacity: 1; stroke-width: 0px; fill: rgb(0, 0, 0); fill-opacity: 1;"/><path class="point" transform="translate(-770.09,-159.8)" d="M3,0A3,3 0 1,1 0,-3A3,3 0 0,1 3,0Z" style="opacity: 1; stroke-width: 0px; fill: rgb(0, 0, 0); fill-opacity: 1;"/></g><g class="text"/></g><g class="trace scatter trace5c5f0d" style="stroke-miterlimit: 2; opacity: 1;"><g class="fills"/><g class="errorbars"/><g class="lines"><path class="js-line" d="M2092.8,675.47L-770.09,-170.15L-770.09,-170.15" style="vector-effect: non-scaling-stroke; fill: none; stroke: rgb(0, 0, 0); stroke-opacity: 1; stroke-width: 2px; opacity: 1;"/></g><g class="points"/><g class="text"/></g><g class="trace scatter tracea526ac" style="stroke-miterlimit: 2; opacity: 1;"><g class="fills"/><g class="errorbars"/><g class="lines"><path class="js-line" d="M154.4,91.38L154.4,2550" style="vector-effect: non-scaling-stroke; fill: none; stroke: rgb(0, 0, 0); stroke-opacity: 1; stroke-width: 2px; opacity: 1; stroke-dasharray: 3px, 3px;"/></g><g class="points"/><g class="text"/></g><g class="trace scatter trace7c6abb" style="stroke-miterlimit: 2; opacity: 1;"><g class="fills"/><g class="errorbars"/><g class="lines"><path class="js-line" d="M76.01,91.38L76.01,2550" style="vector-effect: non-scaling-stroke; fill: none; stroke: rgb(0, 0, 0); stroke-opacity: 1; stroke-width: 2px; opacity: 1; stroke-dasharray: 3px, 3px;"/></g><g class="points"/><g class="text"/></g><g class="trace scatter trace74e179" style="stroke-miterlimit: 2; opacity: 1;"><g class="fills"/><g class="errorbars"/><g class="lines"><path class="js-line" d="M-2688,91.38L154.4,91.38" style="vector-effect: non-scaling-stroke; fill: none; stroke: rgb(0, 0, 0); stroke-opacity: 1; stroke-width: 2px; opacity: 1; stroke-dasharray: 3px, 3px;"/></g><g class="points"/><g class="text"/></g><g class="trace scatter trace8598ce" style="stroke-miterlimit: 2;"><g class="fills"><g><path class="js-fill" d="M5040,2465L5040,1557.606007090751L-3111.05,-850L-3032.66,-850L5040,1534.4516607309765L5040,2465Z" style="fill: rgb(230, 159, 0); fill-opacity: 0.3; stroke-width: 0;"/></g></g><g class="errorbars"/><g class="lines"><path class="js-line" d="M5040,2465L5040,1534.4516607309765L-3032.66,-850" style="vector-effect: non-scaling-stroke; fill: none; stroke: rgb(68, 68, 68); stroke-opacity: 1; stroke-width: 0px; opacity: 1;"/></g><g class="points"/><g class="text"/></g><g class="trace scatter tracedf4308" style="stroke-miterlimit: 2;"><g class="fills"/><g class="errorbars"/><g class="lines"><path class="js-line" d="M5040,2465L5040,1557.606007090751L-3111.05,-850" style="vector-effect: non-scaling-stroke; fill: none; stroke: rgb(68, 68, 68); stroke-opacity: 1; stroke-width: 0px; opacity: 1;"/></g><g class="points"/><g class="text"/></g></g></g><g class="overplot"/><path class="xlines-above crisp" d="" style="fill: none; stroke-width: 1px; stroke: rgb(0, 0, 0); stroke-opacity: 0;"/><path class="ylines-above crisp" d="" style="fill: none; stroke-width: 1px; stroke: rgb(0, 0, 0); stroke-opacity: 0;"/><g class="overlines-above"/><g class="xaxislayer-above"><path class="xtick ticks crisp" d="M0,271v5" transform="translate(123.28999999999999,0)" style="stroke: rgb(0, 0, 0); stroke-opacity: 1; stroke-width: 1.5px;"/><path class="xtick ticks crisp" d="M0,271v5" transform="translate(178.97,0)" style="stroke: rgb(0, 0, 0); stroke-opacity: 1; stroke-width: 1.5px;"/><path class="xtick ticks crisp" d="M0,271v5" transform="translate(228.07,0)" style="stroke: rgb(0, 0, 0); stroke-opacity: 1; stroke-width: 1.5px;"/><path class="xtick ticks crisp" d="M0,271v5" transform="translate(272,0)" style="stroke: rgb(0, 0, 0); stroke-opacity: 1; stroke-width: 1.5px;"/><path class="xtick ticks crisp" d="M0,271v5" transform="translate(311.74,0)" style="stroke: rgb(0, 0, 0); stroke-opacity: 1; stroke-width: 1.5px;"/><g class="xtick"><text text-anchor="middle" x="0" y="290.4" transform="translate(123.28999999999999,0)" style="font-family: Arial; font-size: 12px; fill: rgb(0, 0, 0); fill-opacity: 1; white-space: pre; opacity: 1;">700</text></g><g class="xtick"><text text-anchor="middle" x="0" y="290.4" style="font-family: Arial; font-size: 12px; fill: rgb(0, 0, 0); fill-opacity: 1; white-space: pre; opacity: 1;" transform="translate(178.97,0)">800</text></g><g class="xtick"><text text-anchor="middle" x="0" y="290.4" style="font-family: Arial; font-size: 12px; fill: rgb(0, 0, 0); fill-opacity: 1; white-space: pre; opacity: 1;" transform="translate(228.07,0)">900</text></g><g class="xtick"><text text-anchor="middle" x="0" y="290.4" style="font-family: Arial; font-size: 12px; fill: rgb(0, 0, 0); fill-opacity: 1; white-space: pre; opacity: 1;" transform="translate(272,0)">1000</text></g><g class="xtick"><text text-anchor="middle" x="0" y="290.4" style="font-family: Arial; font-size: 12px; fill: rgb(0, 0, 0); fill-opacity: 1; white-space: pre; opacity: 1;" transform="translate(311.74,0)">1100</text></g></g><g class="yaxislayer-above"><path class="ytick ticks crisp" d="M79,0h-5" transform="translate(0,270)" style="stroke: rgb(0, 0, 0); stroke-opacity: 1; stroke-width: 1.5px;"/><path class="ytick ticks crisp" d="M79,0h-5" transform="translate(0,185)" style="stroke: rgb(0, 0, 0); stroke-opacity: 1; stroke-width: 1.5px;"/><path class="ytick ticks crisp" d="M79,0h-5" transform="translate(0,100)" style="stroke: rgb(0, 0, 0); stroke-opacity: 1; stroke-width: 1.5px;"/><g class="ytick"><text text-anchor="end" x="71.6" y="4.199999999999999" transform="translate(0,270)" style="font-family: Arial; font-size: 12px; fill: rgb(0, 0, 0); fill-opacity: 1; white-space: pre; opacity: 1;">28</text></g><g class="ytick"><text text-anchor="end" x="71.6" y="4.199999999999999" style="font-family: Arial; font-size: 12px; fill: rgb(0, 0, 0); fill-opacity: 1; white-space: pre; opacity: 1;" transform="translate(0,185)">29</text></g><g class="ytick"><text text-anchor="end" x="71.6" y="4.199999999999999" style="font-family: Arial; font-size: 12px; fill: rgb(0, 0, 0); fill-opacity: 1; white-space: pre; opacity: 1;" transform="translate(0,100)">30</text></g></g><g class="overaxes-above"/></g></g><g class="polarlayer"/><g class="ternarylayer"/><g class="geolayer"/><g class="funnelarealayer"/><g class="pielayer"/><g class="iciclelayer"/><g class="treemaplayer"/><g class="sunburstlayer"/><g class="glimages"/><defs id="topdefs-09d01c"><g class="clips"/></defs><g class="layer-above"><g class="imagelayer"/><g class="shapelayer"/></g><g class="infolayer"><g class="g-gtitle"/><g class="g-xtitle"><text class="xtitle" x="200" y="319.10625" text-anchor="middle" style="font-family: Arial; font-size: 16px; fill: rgb(0, 0, 0); opacity: 1; font-weight: normal; white-space: pre;">copies/mL</text></g><g class="g-ytitle"><text class="ytitle" transform="rotate(-90,32.05,185)" x="32.05" y="185" text-anchor="middle" style="font-family: Arial; font-size: 16px; fill: rgb(0, 0, 0); opacity: 1; font-weight: normal; white-space: pre;">Ct</text></g></g></svg>