<svg class="main-svg" xmlns="http://www.w3.org/2000/svg" xmlns:xlink="http://www.w3.org/1999/xlink" width="400" height="350" style="" viewBox="0 0 400 350"><rect x="0" y="0" width="400" height="350" style="fill: rgb(255, 255, 255); fill-opacity: 1;"/><defs id="defs-329518"><g class="clips"><clipPath id="clip329518xyplot" class="plotclip"><rect width="280" height="230"/></clipPath><clipPath class="axesclip" id="clip329518x"><rect x="80" y="0" width="280" height="350"/></clipPath><clipPath class="axesclip" id="clip329518y"><rect x="0" y="40" width="400" height="230"/></clipPath><clipPath class="axesclip" id="clip329518xy"><rect x="80" y="40" width="280" height="230"/></clipPath></g><g class="gradients"/><g class="patterns"/></defs><g class="bglayer"/><g class="layer-below"><g class="imagelayer"/><g class="shapelayer"/></g><g class="cartesianlayer"><g class="subplot xy"><g class="layer-subplot"><g class="shapelayer"/><g class="imagelayer"/></g><g class="gridlayer"><g class="x"/><g class="y"><path class="ygrid crisp" transform="translate(0,155)" d="M80,0h280" style="stroke: rgb(255, 255, 255); stroke-opacity: 1; stroke-width: 1px;"/></g></g><g class="zerolinelayer"/><path class="xlines-below"/><path class="ylines-below"/><g class="overlines-below"/><g class="xaxislayer-below"/><g class="yaxislayer-below"/><g class="overaxes-below"/><g class="plot" transform="translate(80,40)" clip-path="url(#clip329518xyplot)"><g class="scatterlayer mlayer"><g class="trace scatter trace7c37c1" style="stroke-miterlimit: 2; opacity: 1;"><g class="fills"/><g class="errorbars"/><g class="lines"/><g class="points"><path class="point" transform="translate(2441.6,929.2)" d="M3,0A3,3 0 1,1 0,-3A3,3 0 0,1 3,0Z" style="opacity: 1; stroke-width: 0px; fill: rgb(0, 0, 0); fill-opacity: 1;"/><path class="point" transform="translate(2441.6,910.8)" d="M3,0A3,3 0 1,1 0,-3A3,3 0 0,1 3,0Z" style="opacity: 1; stroke-width: 0px; fill: rgb(0, 0, 0); fill-opacity: 1;"/><path class="point" transform="translate(2441.6,909.65)" d="M3,0A3,3 0 1,1 0,-3A3,3 0 0,1 3,0Z" style="opacity: 1; stroke-width: 0px; fill: rgb(0, 0, 0); fill-opacity: 1;"/><path class="point" transform="translate(1321.6,542.8)" d="M3,0A3,3 0 1,1 0,-3A3,3 0 0,1 3,0Z" style="opacity: 1; stroke-width: 0px; fill: rgb(0, 0, 0); fill-opacity: 1;"/><path class="point" transform="translate(1321.6,523.25)" d="M3,0A3,3 0 1,1 0,-3A3,3 0 0,1 3,0Z" style="opacity: 1; stroke-width: 0px; fill: rgb(0, 0, 0); fill-opacity: 1;"/><path class="point" transform="translate(1321.6,529)" d="M3,0A3,3 0 1,1 0,-3A3,3 0 0,1 3,0Z" style="opacity: 1; stroke-width: 0px; fill: rgb(0, 0, 0); fill-opacity: 1;"/><path class="point" transform="translate(221.56,146.05)" d="M3,0A3,3 0 1,1 0,-3A3,3 0 0,1 3,0Z" style="opacity: 1; stroke-width: 0px; fill: rgb(0, 0, 0); fill-opacity: 1;"/><path class="point" transform="translate(221.56,149.5)" d="M3,0A3,3 0 1,1 0,-3A3,3 0 0,1 3,0Z" style="opacity: 1; stroke-width: 0px; fill: rgb(0, 0, 0); fill-opacity: 1;"/><path class="point" transform="translate(221.56,132.25)" d="M3,0A3,3 0 1,1 0,-3A3,3 0 0,1 3,0Z" style="opacity: 1; stroke-width: 0px; fill: rgb(0, 0, 0); fill-opacity: 1;"/><path class="point" transform="translate(-898.44,-240.35)" d="M3,0A3,3 0 1,1 0,-3A3,3 0 0,1 3,0Z" style="opacity: 1; stroke-width: 0px; fill: rgb(0, 0, 0); fill-opacity: 1;"/><path class="point" transform="translate(-898.44,-213.9)" d="M3,0A3,3 0 1,1 0,-3A3,3 0 0,1 3,0Z" style="opacity: 1; stroke-width: 0px; fill: rgb(0, 0, 0); fill-opacity: 1;"/><path class="point" transform="translate(-898.44,-216.2)" d="M3,0A3,3 0 1,1 0,-3A3,3 0 0,1 3,0Z" style="opacity: 1; stroke-width: 0px; fill: rgb(0, 0, 0); fill-opacity: 1;"/></g><g class="text"/></g><g class="trace scatter traceda76b6" style="stroke-miterlimit: 2; opacity: 1;"><g class="fills"/><g class="errorbars"/><g class="lines"><path class="js-line" d="M2441.6,913.88L-898.44,-230.2L-898.44,-230.2" style="vector-effect: non-scaling-stroke; fill: none; stroke: rgb(0, 0, 0); stroke-opacity: 1; stroke-width: 2px; opacity: 1;"/></g><g class="points"/><g class="text"/></g><g class="trace scatter trace8cae4e" style="stroke-miterlimit: 2; opacity: 1;"><g class="fills"/><g class="errorbars"/><g class="lines"><path class="js-line" d="M180.13,123.63L180.13,3450" style="vector-effect: non-scaling-stroke; fill: none; stroke: rgb(0, 0, 0); stroke-opacity: 1; stroke-width: 2px; opacity: 1; stroke-dasharray: 3px, 3px;"/></g><g class="points"/><g class="text"/></g><g class="trace scatter tracec6a6f4" style="stroke-miterlimit: 2; opacity: 1;"><g class="fills"/><g class="errorbars"/><g class="lines"><path class="js-line" d="M88.68,123.63L88.68,3450" style="vector-effect: non-scaling-stroke; fill: none; stroke: rgb(0, 0, 0); stroke-opacity: 1; stroke-width: 2px; opacity: 1; stroke-dasharray: 3px, 3px;"/></g><g class="points"/><g class="text"/></g><g class="trace scatter trace0fd567" style="stroke-miterlimit: 2; opacity: 1;"><g class="fills"/><g class="errorbars"/><g class="lines"><path class="js-line" d="M-3136,123.63L180.13,123.63" style="vector-effect: non-scaling-stroke; fill: none; stroke: rgb(0, 0, 0); stroke-opacity: 1; stroke-width: 2px; opacity: 1; stroke-dasharray: 3px, 3px;"/></g><g class="points"/><g class="text"/></g><g class="trace scatter trace253b2f" style="stroke-miterlimit: 2;"><g class="fills"><g><path class="js-fill" d="M5880,3335L5880,2107.347801481488L-3629.56,-1150L-3538.11,-1150L5880,2076.0230654847146L5880,3335Z" style="fill: rgb(230, 159, 0); fill-opacity: 0.3; stroke-width: 0;"/></g></g><g class="errorbars"/><g class="lines"><path class="js-line" d="M5880,3335L5880,2076.0230654847146L-3538.11,-1150" style="vector-effect: non-scaling-stroke; fill: none; stroke: rgb(68, 68, 68); stroke-opacity: 1; stroke-width: 0px; opacity: 1;"/></g><g class="points"/><g class="text"/></g><g class="trace scatter trace5986e3" style="stroke-miterlimit: 2;"><g class="fills"/><g class="errorbars"/><g class="lines"><path class="js-line" d="M5880,3335L5880,2107.347801481488L-3629.56,-1150" style="vector-effect: non-scaling-stroke; fill: none; stroke: rgb(68, 68, 68); stroke-opacity: 1; stroke-width: 0px; opacity: 1;"/></g><g class="points"/><g class="text"/></g></g></g><g class="overplot"/><path class="xlines-above crisp" d="" style="fill: none; stroke-width: 1px; stroke: rgb(0, 0, 0); stroke-opacity: 0;"/><path class="ylines-above crisp" d="" style="fill: none; stroke-width: 1px; stroke: rgb(0, 0, 0); stroke-opacity: 0;"/><g class="overlines-above"/><g class="xaxislayer-above"><path class="xtick ticks crisp" d="M0,271v5" transform="translate(130.51,0)" style="stroke: rgb(0, 0, 0); stroke-opacity: 1; stroke-width: 1.5px;"/><path class="xtick ticks crisp" d="M0,271v5" transform="translate(195.45999999999998,0)" style="stroke: rgb(0, 0, 0); stroke-opacity: 1; stroke-width: 1.5px;"/><path class="xtick ticks crisp" d="M0,271v5" transform="translate(252.75,0)" style="stroke: rgb(0, 0, 0); stroke-opacity: 1; stroke-width: 1.5px;"/><path class="xtick ticks crisp" d="M0,271v5" transform="translate(304,0)" style="stroke: rgb(0, 0, 0); stroke-opacity: 1; stroke-width: 1.5px;"/><path class="xtick ticks crisp" d="M0,271v5" transform="translate(350.36,0)" style="stroke: rgb(0, 0, 0); stroke-opacity: 1; stroke-width: 1.5px;"/><g class="xtick"><text text-anchor="middle" x="0" y="290.4" transform="translate(130.51,0)" style="font-family: Arial; font-size: 12px; fill: rgb(0, 0, 0); fill-opacity: 1; white-space: pre; opacity: 1;">700</text></g><g class="xtick"><text text-anchor="middle" x="0" y="290.4" style="font-family: Arial; font-size: 12px; fill: rgb(0, 0, 0); fill-opacity: 1; white-space: pre; opacity: 1;" transform="translate(195.45999999999998,0)">800</text></g><g class="xtick"><text text-anchor="middle" x="0" y="290.4" style="font-family: Arial; font-size: 12px; fill: rgb(0, 0, 0); fill-opacity: 1; white-space: pre; opacity: 1;" transform="translate(252.75,0)">900</text></g><g class="xtick"><text text-anchor="middle" x="0" y="290.4" style="font-family: Arial; font-size: 12px; fill: rgb(0, 0, 0); fill-opacity: 1; white-space: pre; opacity: 1;" transform="translate(304,0)">1000</text></g><g class="xtick"><text text-anchor="middle" x="0" y="290.4" style="font-family: Arial; font-size: 12px; fill: rgb(0, 0, 0); fill-opacity: 1; white-space: pre; opacity: 1;" transform="translate(350.36,0)">1100</text></g></g><g class="yaxislayer-above"><path class="ytick ticks crisp" d="M79,0h-5" transform="translate(0,270)" style="stroke: rgb(0, 0, 0); stroke-opacity: 1; stroke-width: 1.5px;"/><path class="ytick ticks crisp" d="M79,0h-5" transform="translate(0,155)" style="stroke: rgb(0, 0, 0); stroke-opacity: 1; stroke-width: 1.5px;"/><path class="ytick ticks crisp" d="M79,0h-5" transform="translate(0,40)" style="stroke: rgb(0, 0, 0); stroke-opacity: 1; stroke-width: 1.5px;"/><g class="ytick"><text text-anchor="end" x="71.6" y="4.199999999999999" transform="translate(0,270)" style="font-family: Arial; font-size: 12px; fill: rgb(0, 0, 0); fill-opacity: 1; white-space: pre; opacity: 1;">28</text></g><g class="ytick"><text text-anchor="end" x="71.6" y="4.199999999999999" style="font-family: Arial; font-size: 12px; fill: rgb(0, 0, 0); fill-opacity: 1; white-space: pre; opacity: 1;" transform="translate(0,155)">29</text></g><g class="ytick"><text text-anchor="end" x="71.6" y="4.199999999999999" style="font-family: Arial; font-size: 12px; fill: rgb(0, 0, 0); fill-opacity: 1; white-space: pre; opacity: 1;" transform="translate(0,40)">30</text></g></g><g class="overaxes-above"/></g></g><g class="polarlayer"/><g class="ternarylayer"/><g class="geolayer"/><g class="funnelarealayer"/><g class="pielayer"/><g class="iciclelayer"/><g class="treemaplayer"/><g class="sunburstlayer"/><g class="glimages"/><defs id="topdefs-329518"><g class="clips"/></defs><g class="layer-above"><g class="imagelayer"/><g class="shapelayer"/></g><g class="infolayer"><g class="g-gtitle"/><g class="g-xtitle"><text class="xtitle" x="220" y="319.10625" text-anchor="middle" style="font-family: Arial; font-size: 16px; fill: rgb(0, 0, 0); opacity: 1; font-weight: normal; white-space: pre;">copies/mL</text></g><g class="g-ytitle"><text class="ytitle" transform="rotate(-90,32.05,155)" x="32.05" y="155" text-anchor="middle" style="font-family: Arial; font-size: 16px; fill: rgb(0, 0, 0); opacity: 1; font-weight: normal; white-space: pre;">Ct</text></g></g></svg>