<svg class="main-svg" xmlns="http://www.w3.org/2000/svg" xmlns:xlink="http://www.w3.org/1999/xlink" width="400" height="350" style="" viewBox="0 0 400 350"><rect x="0" y="0" width="400" height="350" style="fill: rgb(255, 255, 255); fill-opacity: 1;"/><defs id="defs-75a782"><g class="clips"><clipPath id="clip75a782xyplot" class="plotclip"><rect width="280" height="230"/></clipPath><clipPath class="axesclip" id="clip75a782x"><rect x="80" y="0" width="280" height="350"/></clipPath><clipPath class="axesclip" id="clip75a782y"><rect x="0" y="40" width="400" height="230"/></clipPath><clipPath class="axesclip" id="clip75a782xy"><rect x="80" y="40" width="280" height="230"/></clipPath></g><g class="gradients"/><g class="patterns"/></defs><g class="bglayer"/><g class="layer-below"><g class="imagelayer"/><g class="shapelayer"/></g><g class="cartesianlayer"><g class="subplot xy"><g class="layer-subplot"><g class="shapelayer"/><g class="imagelayer"/></g><g class="gridlayer"><g class="x"/><g class="y"><path class="ygrid crisp" transform="translate(0,212.5)" d="M80,0h280" style="stroke: rgb(255, 255, 255); stroke-opacity: 1; stroke-width: 1px;"/><path class="ygrid crisp" transform="translate(0,155)" d="M80,0h280" style="stroke: rgb(255, 255, 255); stroke-opacity: 1; stroke-width: 1px;"/><path class="ygrid crisp" transform="translate(0,97.5)" d="M80,0h280" style="stroke: rgb(255, 255, 255); stroke-opacity: 1; stroke-width: 1px;"/></g></g><g class="zerolinelayer"><path class="yzl zl crisp" transform="translate(0,270)" d="M80,0h280" style="stroke: rgb(0, 0, 0); stroke-opacity: 1; stroke-width: 2px;"/></g><path class="xlines-below"/><path class="ylines-below"/><g class="overlines-below"/><g class="xaxislayer-below"/><g class="yaxislayer-below"/><g class="overaxes-below"/><g class="plot" transform="translate(80,40)" clip-path="url(#clip75a782xyplot)"><g class="scatterlayer mlayer"><g class="trace scatter tracefbdf61" style="stroke-miterlimit: 2; opacity: 1;"><g class="fills"/><g class="errorbars"/><g class="lines"/><g class="points"><path class="point" transform="translate(247.64,103.96)" d="M3,0A3,3 0 1,1 0,-3A3,3 0 0,1 3,0Z" style="opacity: 1; stroke-width: 0px; fill: rgb(0, 0, 0); fill-opacity: 1;"/><path class="point" transform="translate(247.64,103.04)" d="M3,0A3,3 0 1,1 0,-3A3,3 0 0,1 3,0Z" style="opacity: 1; stroke-width: 0px; fill: rgb(0, 0, 0); fill-opacity: 1;"/><path class="point" transform="translate(247.64,102.98)" d="M3,0A3,3 0 1,1 0,-3A3,3 0 0,1 3,0Z" style="opacity: 1; stroke-width: 0px; fill: rgb(0, 0, 0); fill-opacity: 1;"/><path class="point" transform="translate(185.42,84.64)" d="M3,0A3,3 0 1,1 0,-3A3,3 0 0,1 3,0Z" style="opacity: 1; stroke-width: 0px; fill: rgb(0, 0, 0); fill-opacity: 1;"/><path class="point" transform="translate(185.42,83.66)" d="M3,0A3,3 0 1,1 0,-3A3,3 0 0,1 3,0Z" style="opacity: 1; stroke-width: 0px; fill: rgb(0, 0, 0); fill-opacity: 1;"/><path class="point" transform="translate(185.42,83.95)" d="M3,0A3,3 0 1,1 0,-3A3,3 0 0,1 3,0Z" style="opacity: 1; stroke-width: 0px; fill: rgb(0, 0, 0); fill-opacity: 1;"/><path class="point" transform="translate(124.31,64.8)" d="M3,0A3,3 0 1,1 0,-3A3,3 0 0,1 3,0Z" style="opacity: 1; stroke-width: 0px; fill: rgb(0, 0, 0); fill-opacity: 1;"/><path class="point" transform="translate(124.31,64.97)" d="M3,0A3,3 0 1,1 0,-3A3,3 0 0,1 3,0Z" style="opacity: 1; stroke-width: 0px; fill: rgb(0, 0, 0); fill-opacity: 1;"/><path class="point" transform="translate(124.31,64.11)" d="M3,0A3,3 0 1,1 0,-3A3,3 0 0,1 3,0Z" style="opacity: 1; stroke-width: 0px; fill: rgb(0, 0, 0); fill-opacity: 1;"/><path class="point" transform="translate(62.09,45.48)" d="M3,0A3,3 0 1,1 0,-3A3,3 0 0,1 3,0Z" style="opacity: 1; stroke-width: 0px; fill: rgb(0, 0, 0); fill-opacity: 1;"/><path class="point" transform="translate(62.09,46.81)" d="M3,0A3,3 0 1,1 0,-3A3,3 0 0,1 3,0Z" style="opacity: 1; stroke-width: 0px; fill: rgb(0, 0, 0); fill-opacity: 1;"/><path class="point" transform="translate(62.09,46.69)" d="M3,0A3,3 0 1,1 0,-3A3,3 0 0,1 3,0Z" style="opacity: 1; stroke-width: 0px; fill: rgb(0, 0, 0); fill-opacity: 1;"/></g><g class="text"/></g><g class="trace scatter trace5f34f5" style="stroke-miterlimit: 2; opacity: 1;"><g class="fills"/><g class="errorbars"/><g class="lines"><path class="js-line" d="M247.64,103.19L62.09,45.99L62.09,45.99" style="vector-effect: non-scaling-stroke; fill: none; stroke: rgb(0, 0, 0); stroke-opacity: 1; stroke-width: 2px; opacity: 1;"/></g><g class="points"/><g class="text"/></g><g class="trace scatter trace5f9775" style="stroke-miterlimit: 2; opacity: 1;"><g class="fills"/><g class="errorbars"/><g class="lines"><path class="js-line" d="M122.01,64.46L122.01,230" style="vector-effect: non-scaling-stroke; fill: none; stroke: rgb(0, 0, 0); stroke-opacity: 1; stroke-width: 2px; opacity: 1; stroke-dasharray: 9px, 9px;"/></g><g class="points"/><g class="text"/></g><g class="trace scatter tracef07d84" style="stroke-miterlimit: 2; opacity: 1;"><g class="fills"/><g class="errorbars"/><g class="lines"><path class="js-line" d="M116.93,62.9L116.93,230" style="vector-effect: non-scaling-stroke; fill: none; stroke: rgb(0, 0, 0); stroke-opacity: 1; stroke-width: 2px; opacity: 1; stroke-dasharray: 9px, 9px;"/></g><g class="points"/><g class="text"/></g><g class="trace scatter tracef7e67c" style="stroke-miterlimit: 2; opacity: 1;"><g class="fills"/><g class="errorbars"/><g class="lines"><path class="js-line" d="M-62.22,64.46L122.01,64.46" style="vector-effect: non-scaling-stroke; fill: none; stroke: rgb(0, 0, 0); stroke-opacity: 1; stroke-width: 2px; opacity: 1; stroke-dasharray: 9px, 9px;"/></g><g class="points"/><g class="text"/></g><g class="trace scatter trace4eac65" style="stroke-miterlimit: 2; opacity: 1;"><g class="fills"/><g class="errorbars"/><g class="lines"><path class="js-line" d="M-62.22,62.9L116.93,62.9" style="vector-effect: non-scaling-stroke; fill: none; stroke: rgb(0, 0, 0); stroke-opacity: 1; stroke-width: 2px; opacity: 1; stroke-dasharray: 9px, 9px;"/></g><g class="points"/><g class="text"/></g></g></g><g class="overplot"/><path class="xlines-above crisp" d="" style="fill: none; stroke-width: 1px; stroke: rgb(0, 0, 0); stroke-opacity: 0;"/><path class="ylines-above crisp" d="" style="fill: none; stroke-width: 1px; stroke: rgb(0, 0, 0); stroke-opacity: 0;"/><g class="overlines-above"/><g class="xaxislayer-above"><path class="xtick ticks crisp" d="M0,271v5" transform="translate(80,0)" style="stroke: rgb(0, 0, 0); stroke-opacity: 1; stroke-width: 1.5px;"/><path class="xtick ticks crisp" d="M0,271v5" transform="translate(142.22,0)" style="stroke: rgb(0, 0, 0); stroke-opacity: 1; stroke-width: 1.5px;"/><path class="xtick ticks crisp" d="M0,271v5" transform="translate(204.44,0)" style="stroke: rgb(0, 0, 0); stroke-opacity: 1; stroke-width: 1.5px;"/><path class="xtick ticks crisp" d="M0,271v5" transform="translate(266.66999999999996,0)" style="stroke: rgb(0, 0, 0); stroke-opacity: 1; stroke-width: 1.5px;"/><path class="xtick ticks crisp" d="M0,271v5" transform="translate(328.89,0)" style="stroke: rgb(0, 0, 0); stroke-opacity: 1; stroke-width: 1.5px;"/><g class="xtick"><text text-anchor="middle" x="0" y="290.4" transform="translate(80,0)" style="font-family: Arial; font-size: 12px; fill: rgb(0, 0, 0); fill-opacity: 1; white-space: pre; opacity: 1;">10</text></g><g class="xtick"><text text-anchor="middle" x="0" y="290.4" style="font-family: Arial; font-size: 12px; fill: rgb(0, 0, 0); fill-opacity: 1; white-space: pre; opacity: 1;" transform="translate(142.22,0)">100</text></g><g class="xtick"><text text-anchor="middle" x="0" y="290.4" style="font-family: Arial; font-size: 12px; fill: rgb(0, 0, 0); fill-opacity: 1; white-space: pre; opacity: 1;" transform="translate(204.44,0)">1000</text></g><g class="xtick"><text text-anchor="middle" x="0" y="290.4" style="font-family: Arial; font-size: 12px; fill: rgb(0, 0, 0); fill-opacity: 1; white-space: pre; opacity: 1;" transform="translate(266.66999999999996,0)">1×10​<tspan style="font-size:70%" dy="-0.6em">4</tspan><tspan dy="0.42em">​</tspan></text></g><g class="xtick"><text text-anchor="middle" x="0" y="290.4" style="font-family: Arial; font-size: 12px; fill: rgb(0, 0, 0); fill-opacity: 1; white-space: pre; opacity: 1;" transform="translate(328.89,0)">1×10​<tspan style="font-size:70%" dy="-0.6em">5</tspan><tspan dy="0.42em">​</tspan></text></g></g><g class="yaxislayer-above"><path class="ytick ticks crisp" d="M79,0h-5" transform="translate(0,270)" style="stroke: rgb(0, 0, 0); stroke-opacity: 1; stroke-width: 1.5px;"/><path class="ytick ticks crisp" d="M79,0h-5" transform="translate(0,212.5)" style="stroke: rgb(0, 0, 0); stroke-opacity: 1; stroke-width: 1.5px;"/><path class="ytick ticks crisp" d="M79,0h-5" transform="translate(0,155)" style="stroke: rgb(0, 0, 0); stroke-opacity: 1; stroke-width: 1.5px;"/><path class="ytick ticks crisp" d="M79,0h-5" transform="translate(0,97.5)" style="stroke: rgb(0, 0, 0); stroke-opacity: 1; stroke-width: 1.5px;"/><path class="ytick ticks crisp" d="M79,0h-5" transform="translate(0,40)" style="stroke: rgb(0, 0, 0); stroke-opacity: 1; stroke-width: 1.5px;"/><g class="ytick"><text text-anchor="end" x="71.6" y="4.199999999999999" transform="translate(0,270)" style="font-family: Arial; font-size: 12px; fill: rgb(0, 0, 0); fill-opacity: 1; white-space: pre; opacity: 1;">0</text></g><g class="ytick"><text text-anchor="end" x="71.6" y="4.199999999999999" style="font-family: Arial; font-size: 12px; fill: rgb(0, 0, 0); fill-opacity: 1; white-space: pre; opacity: 1;" transform="translate(0,212.5)">10</text></g><g class="ytick"><text text-anchor="end" x="71.6" y="4.199999999999999" style="font-family: Arial; font-size: 12px; fill: rgb(0, 0, 0); fill-opacity: 1; white-space: pre; opacity: 1;" transform="translate(0,155)">20</text></g><g class="ytick"><text text-anchor="end" x="71.6" y="4.199999999999999" style="font-family: Arial; font-size: 12px; fill: rgb(0, 0, 0); fill-opacity: 1; white-space: pre; opacity: 1;" transform="translate(0,97.5)">30</text></g><g class="ytick"><text text-anchor="end" x="71.6" y="4.199999999999999" style="font-family: Arial; font-size: 12px; fill: rgb(0, 0, 0); fill-opacity: 1; white-space: pre; opacity: 1;" transform="translate(0,40)">40</text></g></g><g class="overaxes-above"/></g></g><g class="polarlayer"/><g class="ternarylayer"/><g class="geolayer"/><g class="funnelarealayer"/><g class="pielayer"/><g class="iciclelayer"/><g class="treemaplayer"/><g class="sunburstlayer"/><g class="glimages"/><defs id="topdefs-75a782"><g class="clips"/></defs><g class="layer-above"><g class="imagelayer"/><g class="shapelayer"/></g><g class="infolayer"><g class="g-gtitle"/><g class="g-xtitle"><text class="xtitle" x="220" y="319.10625" text-anchor="middle" style="font-family: Arial; font-size: 16px; fill: rgb(0, 0, 0); opacity: 1; font-weight: normal; white-space: pre;">copies/mL</text></g><g class="g-ytitle"><text class="ytitle" transform="rotate(-90,32.05,155)" x="32.05" y="155" text-anchor="middle" style="font-family: Arial; font-size: 16px; fill: rgb(0, 0, 0); opacity: 1; font-weight: normal; white-space: pre;">Ct</text></g></g></svg>